<svg width="38" height="34" viewBox="0 0 38 34" fill="none" xmlns="http://www.w3.org/2000/svg">
<path fill-rule="evenodd" clip-rule="evenodd" d="M18.8234 11.2009C17.5261 11.2009 16.4705 12.1431 16.4705 13.3009C16.4705 14.4587 17.5261 15.4009 18.8234 15.4009C20.1206 15.4009 21.1763 14.4587 21.1763 13.3009C21.1763 12.1431 20.1206 11.2009 18.8234 11.2009M18.8232 18.2009C15.7958 18.2009 13.3331 16.0029 13.3331 13.3009C13.3331 10.5989 15.7958 8.40088 18.8232 8.40088C21.8506 8.40088 24.3133 10.5989 24.3133 13.3009C24.3133 16.0029 21.8506 18.2009 18.8232 18.2009M18.8232 2.80078C11.9041 2.80078 6.27441 7.77638 6.27441 13.893C6.27441 21.5566 17.3315 30.1036 17.802 30.4634C18.0969 30.6888 18.4593 30.8008 18.8232 30.8008C19.1871 30.8008 19.5495 30.6888 19.8443 30.4634C20.3149 30.1036 31.372 21.5566 31.372 13.893C31.372 7.77638 25.7423 2.80078 18.8232 2.80078" fill="#343C44"/>
</svg>
